<svg width="52" height="52" viewBox="0 0 52 52" fill="none" xmlns="http://www.w3.org/2000/svg">
<rect x="1.3162" y="1.42643" width="49.3965" height="49.3965" rx="24.6983" fill="#FBFF5A"/>
<rect x="1.3162" y="1.42643" width="49.3965" height="49.3965" rx="24.6983" stroke="black" stroke-width="1.07455"/>
<path d="M39.3749 27.2745C40.0099 26.6395 40.0099 25.61 39.3749 24.975L29.0275 14.6277C28.3926 13.9927 27.3631 13.9927 26.7281 14.6277C26.0932 15.2626 26.0932 16.2921 26.7281 16.9271L35.9258 26.1248L26.7281 35.3224C26.0932 35.9574 26.0932 36.9869 26.7281 37.6218C27.3631 38.2568 28.3926 38.2568 29.0275 37.6218L39.3749 27.2745ZM13.8037 27.7507H29.5218V24.4988H13.8037V27.7507ZM29.5218 27.7507H38.2252V24.4988H29.5218V27.7507Z" fill="black"/>
</svg>
