<svg width="32" height="31" viewBox="0 0 32 31" fill="none" xmlns="http://www.w3.org/2000/svg">
<rect x="1.2835" y="0.379632" width="29.7237" height="29.7237" rx="14.8619" fill="#31B9F6"/>
<rect x="1.2835" y="0.379632" width="29.7237" height="29.7237" rx="14.8619" stroke="black" stroke-width="0.646594"/>
<path d="M24.1847 15.9333C24.5668 15.5512 24.5668 14.9317 24.1847 14.5496L17.9584 8.32323C17.5763 7.94115 16.9568 7.94115 16.5747 8.32323C16.1926 8.70532 16.1926 9.3248 16.5747 9.70688L22.1093 15.2415L16.5747 20.776C16.1926 21.1581 16.1926 21.7776 16.5747 22.1597C16.9568 22.5418 17.5763 22.5418 17.9584 22.1597L24.1847 15.9333ZM8.79761 16.2198H18.2558V14.2631H8.79761V16.2198ZM18.2558 16.2198H23.4929V14.2631H18.2558V16.2198Z" fill="black"/>
</svg>
