<svg width="1404" height="772" viewBox="0 0 1404 772" fill="none" xmlns="http://www.w3.org/2000/svg">
<path opacity="0.2" fill-rule="evenodd" clip-rule="evenodd" d="M1362.6 176.445C1333.5 156.23 1281.2 130.505 1218.82 118.977C1156.44 107.448 1083.94 110.115 1014.47 146.73C970.969 169.662 954.251 202.993 949.818 240.208C946.006 272.206 951.276 307.101 956.351 340.7C957.17 346.12 957.983 351.506 958.753 356.841C961.525 376.063 963.729 394.623 963.563 411.739C963.397 428.854 960.862 444.491 954.184 457.88C940.853 484.604 910.896 502.576 849.569 505.192C757.243 509.13 693.984 474.719 640.358 445.548C622.741 435.965 606.163 426.947 589.936 420.04C557.131 406.077 525.773 400.777 490.287 417.09C454.848 433.381 415.364 471.198 366.182 543.241C317.036 615.232 276.067 636.533 239.588 630.014C221.317 626.749 204.089 616.496 187.441 601.982C170.794 587.469 154.758 568.725 138.869 548.524C131.189 538.76 123.542 528.654 115.878 518.524L115.877 518.524C91.8549 486.776 67.6581 454.797 41.7237 432.407C24.6074 417.63 6.69093 406.988 -12.4843 403.343C-31.6748 399.695 -52.0729 403.064 -74.1194 416.215L-73.6071 417.073C-51.7449 404.033 -31.5933 400.728 -12.6711 404.325C6.26649 407.926 24.0258 418.449 41.0702 433.164C66.9167 455.478 91.0196 487.332 115.027 519.059L115.029 519.063C122.706 529.208 130.373 539.34 138.083 549.143C153.982 569.355 170.064 588.16 186.784 602.736C203.503 617.311 220.893 627.689 239.412 630.998C276.515 637.629 317.818 615.861 367.008 543.804C416.164 471.799 455.521 434.173 490.705 417.999C525.841 401.846 556.887 407.059 589.545 420.96C605.65 427.815 622.151 436.792 639.718 446.349C693.378 475.542 756.979 510.142 849.612 506.191C911.092 503.569 941.509 485.529 955.078 458.326C961.85 444.752 964.396 428.947 964.563 411.748C964.729 394.551 962.516 375.926 959.743 356.698C958.972 351.357 958.159 345.969 957.341 340.553L957.338 340.531C952.262 306.92 947.017 272.179 950.811 240.326C955.211 203.389 971.767 170.372 1014.94 147.615C1084.15 111.13 1156.41 108.461 1218.64 119.961C1280.87 131.461 1333.04 157.127 1362.03 177.266L1362.6 176.445ZM1237.12 165.538C1299.5 177.066 1351.8 202.791 1380.9 223.006L1380.33 223.827C1351.34 203.688 1299.17 178.022 1236.94 166.521C1174.71 155.022 1102.45 157.691 1033.23 194.176C990.063 216.932 973.506 249.95 969.106 286.887C965.312 318.74 970.558 353.481 975.633 387.092L975.636 387.113C976.454 392.53 977.267 397.918 978.038 403.259C980.811 422.487 983.025 441.111 982.858 458.309C982.691 475.508 980.145 491.313 973.374 504.887C959.805 532.09 929.387 550.13 867.907 552.752C775.275 556.703 711.673 522.102 658.013 492.91C640.447 483.353 623.945 474.376 607.84 467.521C575.182 453.62 544.137 448.407 509 464.56C473.816 480.734 434.459 518.36 385.304 590.365C336.113 662.422 294.81 684.19 257.708 677.559C239.188 674.249 221.798 663.872 205.079 649.297C188.359 634.721 172.277 615.916 156.378 595.703C148.668 585.901 141.001 575.769 133.325 565.624L133.322 565.62C109.315 533.893 85.2119 502.039 59.3655 479.725C42.3211 465.01 24.5618 454.486 5.62422 450.886C-13.2981 447.289 -33.4497 450.594 -55.3118 463.634L-55.8241 462.776C-33.7776 449.625 -13.3795 446.256 5.81099 449.904C24.9862 453.549 42.9026 464.191 60.019 478.968C85.9534 501.358 110.15 533.337 134.173 565.085L134.173 565.085C141.838 575.215 149.484 585.321 157.164 595.085C173.054 615.286 189.089 634.03 205.736 648.543C222.385 663.057 239.612 673.309 257.884 676.575C294.363 683.094 335.331 661.793 384.478 589.802C433.659 517.759 473.143 479.942 508.582 463.651C544.068 447.338 575.427 452.638 608.232 466.601C624.459 473.508 641.036 482.525 658.653 492.109C712.28 521.28 775.538 555.691 867.864 551.753C929.192 549.137 959.148 531.165 972.479 504.441C979.157 491.052 981.692 475.415 981.858 458.3C982.024 441.184 979.821 422.623 977.048 403.402C976.279 398.067 975.465 392.681 974.647 387.261C969.572 353.661 964.302 318.767 968.113 286.769C972.546 249.554 989.265 216.223 1032.77 193.291C1102.23 156.676 1174.73 154.009 1237.12 165.538ZM1399.19 269.567C1370.09 249.352 1317.79 223.627 1255.41 212.099C1193.03 200.57 1120.53 203.237 1051.06 239.852C1007.56 262.784 990.842 296.115 986.409 333.33C982.597 365.328 987.867 400.223 992.942 433.822C993.76 439.242 994.574 444.628 995.343 449.963C998.116 469.185 1000.32 487.745 1000.15 504.861C999.988 521.976 997.453 537.613 990.774 551.002C977.444 577.726 947.487 595.698 886.16 598.314C793.833 602.252 730.575 567.841 676.948 538.67C659.331 529.086 642.754 520.069 626.527 513.162C593.722 499.199 562.363 493.899 526.878 510.212C491.438 526.503 451.954 564.32 402.773 636.363C353.627 708.354 312.658 729.655 276.179 723.136C257.908 719.87 240.68 709.618 224.031 695.104C207.384 680.591 191.349 661.847 175.46 641.646C167.78 631.882 160.133 621.776 152.468 611.646C128.445 579.898 104.249 547.919 78.3142 525.529C61.1979 510.752 43.2815 500.11 24.1063 496.465C4.91578 492.817 -15.4824 496.186 -37.5288 509.337L-37.0166 510.195C-15.1544 497.155 4.99721 493.85 23.9195 497.447C42.857 501.047 60.6164 511.571 77.6608 526.286C103.507 548.6 127.61 580.454 151.617 612.181L151.62 612.185L151.622 612.187C159.298 622.331 166.964 632.462 174.674 642.265C190.573 662.477 206.654 681.282 223.374 695.858C240.093 710.433 257.484 720.81 276.003 724.12C313.105 730.751 354.408 708.983 403.599 636.926C452.755 564.921 492.112 527.295 527.295 511.121C562.432 494.968 593.477 500.181 626.135 514.082C642.241 520.937 658.742 529.914 676.308 539.471C729.969 568.664 793.57 603.264 886.202 599.313C947.682 596.691 978.1 578.651 991.669 551.448C998.44 537.874 1000.99 522.069 1001.15 504.87C1001.32 487.673 999.106 469.048 996.333 449.82C995.563 444.479 994.749 439.091 993.932 433.674L993.928 433.653C988.853 400.042 983.607 365.301 987.401 333.448C991.802 296.511 1008.36 263.493 1051.53 240.737C1120.74 204.252 1193 201.583 1255.23 213.083C1317.46 224.583 1369.63 250.249 1398.62 270.388L1399.19 269.567ZM1417.49 316.127C1388.39 295.913 1336.09 270.188 1273.71 258.66C1211.32 247.131 1138.82 249.797 1069.36 286.413C1025.86 309.344 1009.14 342.676 1004.7 379.891C1000.89 411.889 1006.16 446.783 1011.24 480.383C1012.06 485.803 1012.87 491.189 1013.64 496.524C1016.41 515.745 1018.61 534.306 1018.45 551.421C1018.28 568.537 1015.75 584.174 1009.07 597.563C995.739 624.287 965.782 642.259 904.455 644.875C812.129 648.813 748.87 614.402 695.244 585.23C677.627 575.647 661.049 566.63 644.822 559.723C612.017 545.759 580.659 540.46 545.173 556.773C509.734 573.064 470.25 610.881 421.068 682.923C371.922 754.915 330.953 776.216 294.474 769.697C276.203 766.431 258.975 756.179 242.327 741.665C225.679 727.152 209.644 708.408 193.755 688.207C186.077 678.445 178.432 668.341 170.769 658.214L170.765 658.209L170.763 658.207C146.741 626.458 122.544 594.48 96.6095 572.09C79.4932 557.313 61.5768 546.671 42.4015 543.026C23.2111 539.377 2.81291 542.747 -19.2336 555.897L-18.7213 556.756C3.14088 543.716 23.2925 540.411 42.2148 544.008C61.1523 547.608 78.9117 558.132 95.956 572.847C121.802 595.161 145.905 627.015 169.912 658.742C177.59 668.888 185.257 679.021 192.969 688.825C208.868 709.038 224.95 727.843 241.67 742.419C258.389 756.994 275.779 767.371 294.298 770.681C331.401 777.312 372.703 755.544 421.894 683.487C471.05 611.482 510.407 573.855 545.59 557.681C580.727 541.529 611.773 546.742 644.43 560.643C660.536 567.498 677.037 576.475 694.604 586.032C748.264 615.224 811.865 649.825 904.498 645.874C965.977 643.252 996.395 625.212 1009.96 598.009C1016.74 584.434 1019.28 568.629 1019.45 551.431C1019.62 534.233 1017.4 515.608 1014.63 496.381C1013.86 491.04 1013.04 485.652 1012.23 480.235L1012.22 480.214C1007.15 446.603 1001.9 411.861 1005.7 380.009C1010.1 343.072 1026.65 310.054 1069.82 287.298C1139.04 250.813 1211.3 248.144 1273.53 259.643C1335.76 271.144 1387.93 296.81 1416.92 316.949L1417.49 316.127Z" fill="url(#paint0_linear_14_34)"/>
<path opacity="0.2" fill-rule="evenodd" clip-rule="evenodd" d="M1359.8 601.398C1330.4 621.817 1277.57 647.803 1214.56 659.448C1151.54 671.094 1078.31 668.4 1008.14 631.414C964.197 608.251 947.31 574.582 942.832 536.991C938.982 504.669 944.306 469.421 949.432 435.479L949.432 435.476C950.259 430.003 951.081 424.563 951.858 419.176C954.658 399.759 956.884 381.01 956.717 363.72C956.549 346.431 953.988 330.634 947.242 317.108C933.775 290.11 903.512 271.956 841.561 269.313C748.296 265.335 684.394 300.096 630.223 329.564C612.427 339.244 595.682 348.353 579.291 355.33C546.154 369.435 514.479 374.788 478.634 358.31C442.837 341.854 402.953 303.655 353.272 230.881C303.627 158.159 262.241 136.639 225.388 143.225C206.93 146.523 189.527 156.881 172.709 171.542C155.892 186.203 139.694 205.138 123.644 225.543C115.886 235.407 108.161 245.616 100.418 255.849C76.1519 287.919 51.7101 320.222 25.5129 342.838C8.22322 357.765 -9.87426 368.514 -29.2429 372.196C-48.6268 375.881 -69.2307 372.478 -91.5 359.195L-90.9877 358.336C-68.9027 371.509 -48.5453 374.848 -29.4297 371.214C-10.2987 367.577 7.64169 356.946 24.8594 342.081C50.9686 319.541 75.3166 287.363 99.5673 255.314L99.5674 255.314C107.323 245.064 115.068 234.828 122.858 224.925C138.918 204.507 155.163 185.512 172.052 170.788C188.94 156.065 206.506 145.583 225.212 142.24C262.688 135.543 304.408 157.53 354.098 230.317C403.753 303.053 443.51 341.063 479.052 357.401C514.547 373.719 545.909 368.452 578.899 354.41C595.169 347.485 611.838 338.417 629.583 328.763C683.788 299.274 748.033 264.323 841.604 268.314C903.707 270.963 934.431 289.186 948.136 316.662C954.976 330.374 957.548 346.338 957.716 363.711C957.885 381.083 955.649 399.896 952.848 419.319C952.068 424.721 951.246 430.169 950.418 435.648C945.292 469.601 939.992 504.696 943.825 536.873C948.27 574.186 964.995 607.541 1008.61 630.529C1078.53 667.385 1151.52 670.081 1214.38 658.465C1277.24 646.847 1329.94 620.92 1359.23 600.577L1359.8 601.398ZM1233.04 612.415C1296.06 600.77 1348.88 574.784 1378.28 554.365L1377.71 553.544C1348.42 573.887 1295.73 599.814 1232.86 611.431C1170 623.048 1097.01 620.352 1027.09 583.496C983.476 560.507 966.751 527.153 962.306 489.84C958.473 457.663 963.773 422.567 968.899 388.615C969.727 383.136 970.549 377.687 971.329 372.285C974.13 352.863 976.366 334.049 976.198 316.677C976.029 299.305 973.457 283.34 966.618 269.629C952.912 242.152 922.188 223.93 860.085 221.281C766.514 217.29 702.269 252.241 648.064 281.729C630.319 291.383 613.65 300.452 597.38 307.377C564.39 321.419 533.028 326.685 497.533 310.368C461.991 294.029 422.234 256.02 372.579 183.284C322.889 110.496 281.169 88.5097 243.693 95.207C224.987 98.55 207.421 109.032 190.533 123.755C173.644 138.479 157.399 157.474 141.339 177.892C133.549 187.795 125.804 198.031 118.049 208.28L118.048 208.28C93.7977 240.329 69.4497 272.507 43.3405 295.048C26.1228 309.912 8.18237 320.543 -10.9486 324.18C-30.0643 327.815 -50.4217 324.476 -72.5067 311.302L-73.0189 312.161C-50.7496 325.444 -30.1457 328.848 -10.7618 325.163C8.60681 321.481 26.7043 310.731 43.994 295.805C70.1911 273.188 94.633 240.885 118.899 208.815C126.642 198.582 134.367 188.373 142.125 178.51C158.175 158.104 174.373 139.169 191.19 124.509C208.008 109.847 225.411 99.4901 243.869 96.1914C280.722 89.6055 322.108 111.125 371.753 183.847C421.434 256.621 461.318 294.82 497.115 311.277C532.96 327.754 564.635 322.401 597.772 308.297C614.163 301.32 630.908 292.211 648.704 282.531C702.875 253.063 766.777 218.302 860.042 222.28C921.993 224.922 952.256 243.077 965.723 270.075C972.469 283.6 975.03 299.397 975.198 316.687C975.365 333.977 973.139 352.726 970.339 372.142C969.562 377.528 968.741 382.965 967.914 388.437L967.914 388.442L967.913 388.446C962.787 422.387 957.463 457.635 961.313 489.958C965.791 527.549 982.678 561.217 1026.62 584.38C1096.79 621.367 1170.02 624.06 1233.04 612.415ZM1396.76 507.331C1367.37 527.75 1314.54 553.736 1251.52 565.381C1188.5 577.027 1115.27 574.333 1045.1 537.347C1001.16 514.183 984.272 480.515 979.794 442.924C975.944 410.602 981.268 375.353 986.394 341.412L986.394 341.409L986.395 341.403C987.222 335.932 988.043 330.494 988.82 325.109C991.62 305.692 993.846 286.943 993.678 269.653C993.511 252.364 990.95 236.567 984.204 223.041C970.737 196.043 940.474 177.888 878.523 175.246C785.258 171.268 721.356 206.029 667.185 235.497C649.389 245.177 632.644 254.286 616.253 261.263C583.116 275.368 551.44 280.721 515.596 264.243C479.799 247.787 439.915 209.587 390.234 136.814C340.589 64.0914 299.203 42.5718 262.35 49.1577C243.892 52.4564 226.489 62.8135 209.671 77.475C192.854 92.1355 176.656 111.07 160.606 131.476C152.849 141.337 145.127 151.543 137.386 161.774L137.384 161.776L137.38 161.781C113.114 193.852 88.672 226.154 62.4748 248.771C45.1851 263.697 27.0876 274.447 7.71901 278.129C-11.6649 281.814 -32.2688 278.411 -54.5381 265.127L-54.0258 264.269C-31.9408 277.442 -11.5835 280.781 7.53224 277.147C26.6632 273.51 44.6036 262.878 61.8213 248.014C87.9305 225.473 112.279 193.296 136.529 161.247L136.529 161.246C144.285 150.997 152.03 140.761 159.82 130.858C175.88 110.44 192.124 91.4451 209.014 76.7212C225.902 61.9982 243.468 51.5164 262.174 48.1733C299.65 41.476 341.37 63.4624 391.06 136.25C440.715 208.986 480.472 246.996 516.014 263.334C551.509 279.651 582.871 274.385 615.861 260.343C632.131 253.418 648.8 244.35 666.545 234.696C720.75 205.207 784.995 170.256 878.566 174.247C940.669 176.896 971.393 195.118 985.098 222.595C991.938 236.306 994.51 252.271 994.678 269.643C994.847 287.015 992.611 305.829 989.809 325.252C989.03 330.654 988.208 336.102 987.38 341.581C982.253 375.534 976.954 410.629 980.787 442.806C985.232 480.119 1001.96 513.474 1045.57 536.462C1115.49 573.318 1188.48 576.014 1251.34 564.398C1314.21 552.78 1366.9 526.853 1396.19 506.51L1396.76 507.331ZM1415.24 460.298C1385.85 480.717 1333.02 506.703 1270 518.348C1206.99 529.993 1133.75 527.3 1063.58 490.313C1019.64 467.15 1002.75 433.482 998.275 395.891C994.425 363.568 999.749 328.321 1004.87 294.38L1004.88 294.372L1004.88 294.368L1004.88 294.365C1005.7 288.895 1006.52 283.459 1007.3 278.075C1010.1 258.659 1012.33 239.91 1012.16 222.62C1011.99 205.33 1009.43 189.533 1002.68 176.008C989.218 149.01 958.954 130.855 897.004 128.213C803.739 124.234 739.837 158.996 685.666 188.463C667.87 198.144 651.125 207.253 634.734 214.23C601.597 228.334 569.922 233.687 534.077 217.209C498.28 200.753 458.396 162.554 408.715 89.7802C359.07 17.0579 317.684 -4.46173 280.831 2.12427C262.373 5.42285 244.97 15.78 228.152 30.4415C211.335 45.102 195.137 64.037 179.087 84.4427C171.328 94.306 163.604 104.515 155.861 114.748C131.595 146.818 107.153 179.121 80.9559 201.737C63.6662 216.664 45.5687 227.414 26.2001 231.096C6.81619 234.781 -13.7877 231.377 -36.057 218.094L-35.5448 217.235C-13.4598 230.408 6.89762 233.747 26.0133 230.113C45.1443 226.476 63.0847 215.845 80.3024 200.981C106.412 178.44 130.76 146.262 155.01 114.213C162.766 103.964 170.511 93.7279 178.301 83.8245C194.361 63.4065 210.605 44.4116 227.495 29.6877C244.383 14.9647 261.949 4.48285 280.655 1.13983C318.131 -5.5575 359.851 16.4288 409.541 89.2164C459.196 161.953 498.953 199.962 534.495 216.301C569.99 232.618 601.352 227.352 634.342 213.31C650.612 206.384 667.281 197.316 685.026 187.662C739.231 158.173 803.476 123.222 897.047 127.214C959.15 129.862 989.874 148.085 1003.58 175.561C1010.42 189.273 1012.99 205.238 1013.16 222.61C1013.33 239.982 1011.09 258.795 1008.29 278.218C1007.51 283.605 1006.69 289.039 1005.87 294.503L1005.86 294.549C1000.73 328.501 995.435 363.596 999.268 395.772C1003.71 433.086 1020.44 466.44 1064.05 489.429C1133.97 526.285 1206.96 528.98 1269.82 517.364C1332.69 505.747 1385.39 479.82 1414.67 459.476L1415.24 460.298Z" fill="url(#paint1_linear_14_34)"/>
<defs>
<linearGradient id="paint0_linear_14_34" x1="97.4135" y1="604.589" x2="1404.72" y2="604.589" gradientUnits="userSpaceOnUse">
<stop offset="0.341667" stop-color="#4535AF" stop-opacity="0.7"/>
<stop offset="0.511553" stop-color="#F8EFF4" stop-opacity="0.1"/>
<stop offset="0.851637" stop-color="#4535AF" stop-opacity="0.8"/>
</linearGradient>
<linearGradient id="paint1_linear_14_34" x1="81.7732" y1="168.915" x2="1402.35" y2="168.915" gradientUnits="userSpaceOnUse">
<stop offset="0.310417" stop-color="#4535AF" stop-opacity="0.7"/>
<stop offset="0.461458" stop-color="#F8EFF4" stop-opacity="0.1"/>
<stop offset="0.851637" stop-color="#4535AF" stop-opacity="0.8"/>
</linearGradient>
</defs>
</svg>
