<svg width="552" height="293" viewBox="0 0 552 293" fill="none" xmlns="http://www.w3.org/2000/svg">
<path d="M79.6363 270.614L125.68 243.701L93.1289 218.655L87.656 241.079L87.6504 241.102L87.6441 241.125L79.6363 270.614Z" stroke="#FBBC04" stroke-width="3.68991"/>
<path d="M453.266 230.418L464.611 147.653L383.143 192.219L453.266 230.418Z" fill="#0F9D58"/>
<path d="M284.134 191.539L271.12 124.091L186.942 171.258L284.134 191.539Z" fill="#4D8CF4"/>
<path d="M306.044 280.579L346.481 222.858L277.622 211.745L306.044 280.579Z" fill="#FBBC04"/>
<path d="M6.41211 260.872L40.0007 203.499L6.41212 167.27L6.41211 260.872Z" fill="#EA4335"/>
<path d="M-4.82104 261.405L28.7675 204.032L-4.82104 167.803L-4.82104 261.405Z" fill="#4D8CF4"/>
<path d="M395.871 323.694L477.415 275.844L384.699 239.615L395.871 323.694Z" fill="#EA4335"/>
<path d="M107.52 110.419L180.358 62.5693L97.541 26.3399L107.52 110.419Z" fill="#FBBC04"/>
<path d="M-13.4031 63.3201L41.8682 154.923L119.594 56.3629L-13.4031 63.3201Z" stroke="#EA4335" stroke-width="2.45994"/>
<path d="M415.856 186.317L471.128 277.92L548.853 179.36L415.856 186.317Z" stroke="#4285F4" stroke-width="2.45994"/>
<path d="M315.373 130.815L208.878 235.798H372.318L315.373 130.815Z" stroke="#EA4335" stroke-width="2.45994"/>
<path d="M163.828 93.1292L58.5687 218.236L255.654 270.925L163.828 93.1292Z" fill="#0F9D58" stroke="#0F9D58" stroke-width="2.45994"/>
<path d="M413.431 201.166L413.175 183.198L398.792 189.992L413.431 201.166Z" fill="white"/>
<path d="M8.08204 66.4439L7.85388 48.4753L-4.99351 55.2693L8.08204 66.4439Z" fill="#0F9D58"/>
</svg>
