<svg width="115" height="62" viewBox="0 0 115 62" fill="none" xmlns="http://www.w3.org/2000/svg">
<path d="M82.295 33.3811C88.2615 29.567 94.2122 25.7217 100.199 21.947C105.882 18.3636 112.568 21.6684 113.856 28.642C114.601 32.6761 112.983 37.0341 109.711 39.1566C98.9827 46.1149 88.2389 53.0456 77.4416 59.8702C74.0997 61.9824 70.6573 61.5939 67.6118 59.0054C64.518 56.3775 63.543 52.7527 64.2686 48.5337C65.097 45.3221 66.9929 43.1749 69.5786 41.5685C73.8539 38.913 78.0596 36.1175 82.295 33.3811Z" fill="#FABC05"/>
<path d="M86.6759 30.6073C80.7244 26.7636 74.7579 22.9499 68.8272 19.0672C63.1973 15.3812 62.4265 7.28451 67.2081 2.55526C69.9741 -0.179634 74.174 -0.799386 77.4618 1.29357C88.2406 8.15522 99.0051 15.046 109.714 22.0407C113.028 24.2057 114.447 27.7186 113.956 31.9484C113.458 36.2437 111.125 38.9959 107.48 40.4065C104.566 41.2141 101.948 40.4597 99.4051 38.7706C95.2007 35.9775 90.9228 33.321 86.6759 30.6073Z" fill="#109D58"/>
<path d="M32.4317 27.8878C28.6127 30.3027 24.7915 32.7132 20.9766 35.1355C18.7448 36.5525 16.5378 38.0178 14.2946 39.4111C9.77479 42.219 4.40493 40.5732 1.84226 35.6275C-0.603459 30.9082 0.802132 24.7895 5.1549 21.9614C15.7976 15.0475 26.4678 8.18391 37.1765 1.39721C40.4608 -0.68441 43.8683 -0.422605 46.9054 2.06577C50.1108 4.6922 51.1602 8.38803 50.4404 12.7209C49.9939 13.7691 49.7272 14.9982 49.0587 15.8241C47.9712 17.1676 46.7353 18.4539 45.3593 19.3986C41.1014 22.3209 36.7482 25.071 32.4317 27.8878Z" fill="#E94436"/>
<path d="M28.0528 30.5966C31.8417 33.0697 35.6279 35.5482 39.4203 38.0144C41.6383 39.457 43.882 40.8518 46.0877 42.3167C50.5326 45.27 51.9373 51.2683 49.3702 56.211C46.9205 60.9284 41.4571 62.6334 37.08 59.8512C26.3788 53.0497 15.7033 46.1974 5.06812 39.2687C1.80642 37.1437 0.306477 33.7284 0.724212 29.5568C1.16498 25.1534 3.5159 22.2943 7.24717 20.8216C8.28597 20.7284 9.37571 20.3704 10.3529 20.6022C11.9419 20.9788 13.561 21.5266 14.9839 22.3806C19.3867 25.0233 23.7032 27.8444 28.0528 30.5966Z" fill="#4385F3"/>
</svg>
