<svg width="267" height="38" viewBox="0 0 267 38" fill="none" xmlns="http://www.w3.org/2000/svg">
<path d="M116.265 17.0275L126.873 10.4552C129.369 8.90859 130.225 5.48271 128.783 2.80389C127.342 0.125073 124.15 -0.792923 121.653 0.753712L103.324 12.1104L116.265 17.0275Z" fill="#EA4335"/>
<path d="M124.258 33.9188C126.062 33.9188 127.816 32.9141 128.783 31.1172C130.225 28.4383 129.369 25.0124 126.873 23.4658L108.544 12.1097C106.047 10.5622 102.855 11.4811 101.414 14.1599C99.9725 16.839 100.828 20.2646 103.324 21.8112L121.653 33.1674C122.475 33.6766 123.373 33.9188 124.258 33.9188Z" fill="#4285F4"/>
<path d="M142.49 33.919C143.376 33.919 144.273 33.6769 145.095 33.1677L163.424 21.8115L150.648 16.7922L139.876 23.4661C137.38 25.0127 136.524 28.4386 137.966 31.1175C138.932 32.9144 140.687 33.919 142.49 33.919Z" fill="#FBBC04"/>
<path d="M160.81 22.5608C162.614 22.5608 164.368 21.5566 165.335 19.7592C166.776 17.0804 165.921 13.6548 163.424 12.1079L145.096 0.751204C142.599 -0.795141 139.407 0.122276 137.965 2.8014C136.524 5.48022 137.38 8.90578 139.876 10.4527L158.205 21.8094C159.027 22.3185 159.925 22.5608 160.81 22.5608Z" fill="#0F9D58"/>
</svg>
